<?xml version="1.0" encoding="UTF-8" standalone="no"?>
<!DOCTYPE svg PUBLIC "-//W3C//DTD SVG 1.1//EN" "http://www.w3.org/Graphics/SVG/1.1/DTD/svg11.dtd">
<svg width="100%" height="100%" viewBox="0 0 24 24" version="1.1" xmlns="http://www.w3.org/2000/svg" xmlns:xlink="http://www.w3.org/1999/xlink" xml:space="preserve" xmlns:serif="http://www.serif.com/" style="fill-rule:evenodd;clip-rule:evenodd;stroke-linecap:round;stroke-linejoin:round;">
    <path d="M15,21L15,13C15,12.451 14.549,12 14,12L10,12C9.451,12 9,12.451 9,13L9,21" style="fill:none;fill-rule:nonzero;stroke:white;stroke-width:2px;"/>
    <path d="M3,10C3,9.411 3.26,8.852 3.709,8.472L10.709,2.473C11.451,1.846 12.549,1.846 13.291,2.473L20.291,8.472C20.74,8.852 21,9.411 21,10L21,19C21,20.097 20.097,21 19,21L5,21C3.903,21 3,20.097 3,19L3,10Z" style="fill:none;fill-rule:nonzero;stroke:white;stroke-width:2px;"/>
</svg>
