<?xml version="1.0" encoding="UTF-8" standalone="no"?>
<!DOCTYPE svg PUBLIC "-//W3C//DTD SVG 1.1//EN" "http://www.w3.org/Graphics/SVG/1.1/DTD/svg11.dtd">
<svg width="100%" height="100%" viewBox="0 0 24 24" version="1.1" xmlns="http://www.w3.org/2000/svg" xmlns:xlink="http://www.w3.org/1999/xlink" xml:space="preserve" xmlns:serif="http://www.serif.com/" style="fill-rule:evenodd;clip-rule:evenodd;stroke-linecap:round;stroke-linejoin:round;">
    <path d="M19,17L19,5C19,3.903 18.097,3 17,3L4,3" style="fill:none;fill-rule:nonzero;stroke:white;stroke-width:2px;"/>
    <path d="M8,21L20,21C21.097,21 22,20.097 22,19L22,18C22,17.451 21.549,17 21,17L11,17C10.451,17 10,17.451 10,18L10,19C10,20.097 9.097,21 8,21C6.903,21 6,20.097 6,19L6,5C6,3.903 5.097,3 4,3C2.903,3 2,3.903 2,5L2,7C2,7.549 2.451,8 3,8L6,8" style="fill:none;fill-rule:nonzero;stroke:white;stroke-width:2px;"/>
</svg>
