<?xml version="1.0" encoding="UTF-8" standalone="no"?>
<!DOCTYPE svg PUBLIC "-//W3C//DTD SVG 1.1//EN" "http://www.w3.org/Graphics/SVG/1.1/DTD/svg11.dtd">
<svg width="100%" height="100%" viewBox="0 0 24 24" version="1.1" xmlns="http://www.w3.org/2000/svg" xmlns:xlink="http://www.w3.org/1999/xlink" xml:space="preserve" xmlns:serif="http://www.serif.com/" style="fill-rule:evenodd;clip-rule:evenodd;stroke-linecap:round;stroke-linejoin:round;">
    <path d="M8.3,10C8.287,10.001 8.275,10.001 8.262,10.001C7.878,10.001 7.562,9.685 7.562,9.301C7.562,9.166 7.601,9.034 7.674,8.921L11.4,3C11.523,2.778 11.758,2.64 12.012,2.64C12.248,2.64 12.469,2.759 12.598,2.957L16.3,8.9C16.382,9.017 16.426,9.157 16.426,9.3C16.426,9.683 16.111,9.999 15.728,10L8.3,10Z" style="fill:none;fill-rule:nonzero;stroke:white;stroke-width:2px;"/>
    <path d="M10,15L10,20C10,20.552 9.552,21 9,21L4,21C3.448,21 3,20.552 3,20L3,15C3,14.448 3.448,14 4,14L9,14C9.552,14 10,14.448 10,15Z" style="fill:none;stroke:white;stroke-width:2px;"/>
    <circle cx="17.5" cy="17.5" r="3.5" style="fill:none;stroke:white;stroke-width:2px;"/>
</svg>
