<?xml version="1.0" encoding="UTF-8" standalone="no"?>
<!DOCTYPE svg PUBLIC "-//W3C//DTD SVG 1.1//EN" "http://www.w3.org/Graphics/SVG/1.1/DTD/svg11.dtd">
<svg width="100%" height="100%" viewBox="0 0 24 24" version="1.1" xmlns="http://www.w3.org/2000/svg" xmlns:xlink="http://www.w3.org/1999/xlink" xml:space="preserve" xmlns:serif="http://www.serif.com/" style="fill-rule:evenodd;clip-rule:evenodd;stroke-linecap:round;stroke-linejoin:round;">
    <path d="M12,22C6.514,22 2,17.486 2,12C2,6.514 6.514,2 12,2C17.486,2 22,6.063 22,11C22,13.743 19.743,16 17,16L14.75,16C13.79,16 13,16.79 13,17.75C13,18.129 13.123,18.497 13.35,18.8L13.65,19.2C13.877,19.503 14,19.871 14,20.25C14,21.21 13.21,22 12.25,22L12,22Z" style="fill:none;fill-rule:nonzero;stroke:white;stroke-width:2px;"/>
    <circle cx="13.5" cy="6.5" r="0.5" style="fill:white;stroke:white;stroke-width:2px;"/>
    <circle cx="17.5" cy="10.5" r="0.5" style="fill:white;stroke:white;stroke-width:2px;"/>
    <circle cx="6.5" cy="12.5" r="0.5" style="fill:white;stroke:white;stroke-width:2px;"/>
    <circle cx="8.5" cy="7.5" r="0.5" style="fill:white;stroke:white;stroke-width:2px;"/>
</svg>
